<svg width="48" height="48" viewBox="0 0 48 48" fill="none" xmlns="http://www.w3.org/2000/svg">
<g id="white-logo 1">
<g id="Layer_2_00000044864237746717840370000014617769081027628164_">
<path id="Vector" d="M15.1543 28.9543L8.36572 30.2315L20.94 36.9515L23.7857 40.4315L21.7286 33.7972L15.1543 28.9543Z" stroke="white" stroke-width="0.8" stroke-miterlimit="10"/>
<path id="Vector_2" d="M7.80005 30.2658L19.3543 40.7743L20.94 36.9515L15.1543 28.9543L11.1429 23.5886L7.80005 30.2658Z" stroke="white" stroke-width="0.8" stroke-miterlimit="10"/>
<path id="Vector_3" d="M21.9514 27.3429L15.4286 28.8944L15.72 21.4886L21.9514 27.3429Z" stroke="white" stroke-width="0.8" stroke-miterlimit="10"/>
<path id="Vector_4" d="M6.81433 24.4286L11.1772 23.1429L15.0343 21.6086L9.60005 20.5886L6.81433 24.4286Z" stroke="white" stroke-width="0.8" stroke-miterlimit="10"/>
<path id="Vector_5" d="M18.6943 17.6572L21.3858 14.5458L23.7858 16.3458L21.2401 21.1886L18.6943 17.6572Z" stroke="white" stroke-width="0.8" stroke-miterlimit="10"/>
<path id="Vector_6" d="M9.6001 20.5887L14.7172 15.8744L15.7201 21.4887L17.443 18.8658L20.9401 21.223L22.5172 27.3772L21.7287 33.7972L15.4287 29.1601L22.5172 29.1087L25.2172 29.3744L26.2287 31.2087L27.883 30.3087L27.0172 34.5344L26.6572 36.3087L26.4515 37.2858L26.5287 40.3887L27.583 37.963L26.6572 36.3087" stroke="white" stroke-width="0.8" stroke-miterlimit="10"/>
<path id="Vector_7" d="M14.0658 14.3229L14.7429 11.3915H18.2315L21.3858 14.5458L17.4429 18.8658L17.5972 12.8229L15.6429 14.5458L16.8001 17.8715L14.8972 15.7115L14.0658 14.3229Z" stroke="white" stroke-width="0.8" stroke-miterlimit="10"/>
<path id="Vector_8" d="M21.0087 21.4886H15.7201" stroke="white" stroke-width="0.8" stroke-miterlimit="10"/>
<path id="Vector_9" d="M30.54 32.1857L27.0086 34.5343L22.3286 33.8829L26.22 31.2086C26.22 31.2086 27.6086 30.3429 27.8743 30.3086C28.14 30.2743 29.64 28.8943 29.64 28.8943L30.54 32.1857Z" stroke="white" stroke-width="0.8" stroke-miterlimit="10"/>
<path id="Vector_10" d="M31.0286 20.6657L30.42 19.3029L33.2743 19.74L31.0286 20.6657Z" stroke="white" stroke-width="0.8" stroke-miterlimit="10"/>
<path id="Vector_11" d="M38.3143 25.7315H36.1714L29.64 28.8943L30.1714 22.0543L36.2829 22.5086" stroke="white" stroke-width="0.8" stroke-miterlimit="10"/>
<path id="Vector_12" d="M15.6429 14.5457L15.0343 11.88L17.7257 12.4114L20.1686 13.3286" stroke="white" stroke-width="0.8" stroke-miterlimit="10"/>
<path id="Vector_13" d="M26.1343 13.7229L23.7858 16.3458" stroke="white" stroke-width="0.8" stroke-miterlimit="10"/>
<path id="Vector_14" d="M21.2401 21.1886L27.1286 25.7314L27.8829 30.3086L30.54 32.1857L34.2601 30.4886L32.3229 33.24L35.7943 33.0514L37.2601 31.1314L36.2486 29.6314L37.8258 28.9543L37.6715 26.7429L38.4601 25.5086L37.9029 24.2657L36.2829 22.5086L33.8058 19.4657L33.7886 17.3229L31.8601 16.3457L24.24 12.5914L21.7286 13.5257L26.1343 13.7229L27.2058 19.5L23.7858 16.3457L18.6943 17.6571" stroke="white" stroke-width="0.8" stroke-miterlimit="10"/>
<path id="Vector_15" d="M22.5172 27.3772L26.5458 25.9458L25.2172 29.3744L22.5172 27.3772Z" stroke="white" stroke-width="0.8" stroke-miterlimit="10"/>
<path id="Vector_16" d="M27.8829 30.3087L25.2172 29.3744" stroke="white" stroke-width="0.8" stroke-miterlimit="10"/>
<path id="Vector_17" d="M31.7229 16.5601L29.2801 16.9029L29.1944 19.0115L27.8829 19.7143L29.3058 20.1772L28.1058 21.1886" stroke="white" stroke-width="0.8" stroke-miterlimit="10"/>
<path id="Vector_18" d="M25.8944 41.5372L21.9515 34.02L26.443 37.0629" stroke="white" stroke-width="0.8" stroke-miterlimit="10"/>
<path id="Vector_19" d="M31.98 33.3429L30.54 32.1858" stroke="white" stroke-width="0.8" stroke-miterlimit="10"/>
<path id="Vector_20" d="M29.1943 19.0115L30.1715 19.0886C30.2829 18.9001 30.8829 17.8715 30.8829 17.8715L32.0743 16.6801L33.7886 19.3029" stroke="white" stroke-width="0.8" stroke-miterlimit="10"/>
<path id="Vector_21" d="M30.1715 19.0886L29.7344 17.2372L30.8829 17.8715L33.8058 19.4658" stroke="white" stroke-width="0.8" stroke-miterlimit="10"/>
<path id="Vector_22" d="M30.5401 22.08L36.1715 25.7314L36.1287 22.5086L30.9601 20.9229L30.0772 21.8486L28.1058 21.1886L27.2058 19.5L29.2887 16.6971L30.1715 15.5143" stroke="white" stroke-width="0.8" stroke-miterlimit="10"/>
<path id="Vector_23" d="M37.9029 24.2658L36.1715 25.7315L36.6258 27.9687L29.6401 28.8944L27.1286 25.7315L29.6401 22.3887L24.5315 23.0658L23.7858 16.3458" stroke="white" stroke-width="0.8" stroke-miterlimit="10"/>
<path id="Vector_24" d="M29.64 28.8943L34.26 30.4886L36.6257 27.9686L37.8257 28.9543" stroke="white" stroke-width="0.8" stroke-miterlimit="10"/>
<path id="Vector_25" d="M36.2486 29.6315L35.5629 32.5372L33.9772 30.3943L36.2486 29.6315Z" stroke="white" stroke-width="0.8" stroke-miterlimit="10"/>
<path id="Vector_26" d="M30.4201 19.3029L29.3058 20.1771L31.1144 20.7686" stroke="white" stroke-width="0.8" stroke-miterlimit="10"/>
<path id="Vector_27" d="M30.0772 21.8487L29.3058 20.1772" stroke="white" stroke-width="0.8" stroke-miterlimit="10"/>
<path id="Vector_28" d="M24.0001 41.6229C33.7329 41.6229 41.6229 33.7329 41.6229 24.0001C41.6229 14.2672 33.7329 6.3772 24.0001 6.3772C14.2672 6.3772 6.3772 14.2672 6.3772 24.0001C6.3772 33.7329 14.2672 41.6229 24.0001 41.6229Z" stroke="white" stroke-width="0.8" stroke-miterlimit="10"/>
</g>
</g>
</svg>
